<svg width="34" height="34" viewBox="0 0 34 34" fill="none" xmlns="http://www.w3.org/2000/svg">
<path fill-rule="evenodd" clip-rule="evenodd" d="M18.6666 18.6667V15.3333H33.6666V17C33.6666 26.2047 26.2047 33.6667 17 33.6667C7.79523 33.6667 0.333313 26.2047 0.333313 17C0.333313 7.79526 7.79523 0.333336 17 0.333336C22.1332 0.333336 26.8854 2.67083 30.0279 6.60432L27.4236 8.68489C24.9071 5.53492 21.1088 3.66667 17 3.66667C9.63618 3.66667 3.66665 9.63621 3.66665 17C3.66665 24.3638 9.63618 30.3333 17 30.3333C23.7993 30.3333 29.41 25.2439 30.2302 18.6667H18.6666Z" fill="url(#paint0_linear_102_136)"/>
<defs>
<linearGradient id="paint0_linear_102_136" x1="17" y1="0.333336" x2="17" y2="33.6667" gradientUnits="userSpaceOnUse">
<stop stop-color="#FF0505"/>
<stop offset="0.244792" stop-color="#FAFF0C"/>
<stop offset="0.640625" stop-color="#0878FB" stop-opacity="0.68"/>
<stop offset="1" stop-color="#07FB4B"/>
</linearGradient>
</defs>
</svg>
