<?xml version="1.0" standalone="no"?>
<!DOCTYPE svg PUBLIC "-//W3C//DTD SVG 20010904//EN"
 "http://www.w3.org/TR/2001/REC-SVG-20010904/DTD/svg10.dtd">
<svg version="1.0" xmlns="http://www.w3.org/2000/svg"
 width="512.000000pt" height="512.000000pt" viewBox="0 0 512.000000 512.000000"
 preserveAspectRatio="xMidYMid meet">

<g transform="translate(0.000000,512.000000) scale(0.100000,-0.100000)"
fill="#f00" stroke="none">
<!-- fill="#10dfdc" stroke="none"> -->
<path d="M2465 5106 c-181 -45 -304 -200 -305 -386 l-1 -65 -605 -349 -605
-348 -76 38 c-73 38 -80 39 -177 39 -93 0 -106 -3 -168 -32 -300 -142 -318
-561 -31 -715 l43 -23 0 -705 0 -705 -42 -23 c-91 -49 -158 -132 -189 -234
-58 -191 34 -393 219 -481 62 -29 75 -32 168 -32 97 0 104 1 177 39 l76 38
605 -348 605 -349 1 -65 c1 -152 84 -286 218 -354 265 -134 580 57 582 354 l1
65 605 349 605 348 76 -38 c73 -38 80 -39 177 -39 93 0 106 3 168 32 300 142
318 561 31 715 l-43 23 0 705 0 705 43 23 c90 49 157 132 188 234 58 191 -34
393 -219 481 -62 29 -75 32 -168 32 -97 0 -104 -1 -177 -39 l-76 -38 -605 348
-605 349 -1 65 c-2 259 -244 448 -495 386z m138 -297 c60 -31 77 -114 33 -162
-66 -71 -176 -28 -176 67 1 79 76 129 143 95z m-239 -445 l46 -26 0 -568 0
-569 -42 -12 c-64 -16 -166 -73 -233 -128 -53 -44 -62 -48 -80 -37 -11 7 -232
135 -490 284 l-470 271 5 61 5 62 595 344 c327 189 600 344 606 344 6 0 32
-12 58 -26z m1056 -318 l595 -344 5 -62 5 -61 -470 -271 c-258 -149 -479 -277
-490 -284 -18 -11 -27 -7 -80 37 -67 55 -169 112 -232 128 l-43 12 0 569 0
569 43 24 c23 14 49 25 57 26 8 0 283 -154 610 -343z m-2662 -331 c39 -32 48
-72 28 -119 -38 -91 -174 -76 -192 21 -18 97 90 161 164 98z m3721 10 c35 -18
55 -64 47 -108 -18 -97 -154 -112 -192 -21 -20 47 -11 87 28 119 34 28 75 32
117 10z m-3019 -703 c256 -148 464 -274 463 -279 -21 -105 -26 -191 -14 -270
6 -47 13 -90 14 -96 1 -5 -218 -137 -487 -292 l-490 -283 -50 29 -51 29 -3
699 -2 699 52 30 c48 27 56 28 78 16 14 -7 234 -134 490 -282z m2815 -462 l0
-700 -51 -29 -50 -29 -490 283 c-269 155 -488 287 -487 292 21 105 26 191 14
270 -6 47 -13 90 -14 96 -1 5 218 137 487 292 l490 283 50 -29 51 -29 0 -700z
m-1567 325 c75 -34 144 -103 178 -179 24 -52 28 -74 28 -146 0 -72 -4 -94 -28
-146 -35 -77 -103 -145 -181 -181 -51 -23 -73 -28 -145 -28 -72 0 -94 5 -145
28 -78 36 -146 104 -181 181 -24 51 -28 74 -28 146 -1 72 4 94 27 145 47 101
139 178 244 205 62 15 167 4 231 -25z m-525 -863 c46 -34 136 -78 185 -91 l42
-12 0 -569 0 -568 -46 -26 c-26 -14 -52 -26 -58 -26 -6 0 -279 155 -606 344
l-595 344 -5 62 -5 61 490 283 490 283 38 -31 c21 -17 53 -41 70 -54z m1372
-210 l470 -271 -5 -61 -5 -62 -595 -344 c-327 -189 -600 -344 -606 -344 -6 0
-32 12 -58 26 l-46 26 0 568 0 569 43 12 c63 16 165 73 232 128 53 44 62 48
80 37 11 -7 232 -135 490 -284z m-2819 -237 c24 -10 39 -25 50 -51 20 -47 11
-87 -28 -119 -74 -63 -182 2 -164 98 7 37 27 60 66 76 34 13 36 13 76 -4z
m3754 -14 c14 -10 29 -34 34 -54 25 -97 -86 -166 -162 -102 -38 32 -48 72 -28
119 26 63 97 80 156 37z m-1887 -1062 c60 -31 77 -114 33 -162 -66 -71 -176
-28 -176 67 1 79 76 129 143 95z"/>
</g>
</svg>
