<svg xmlns="http://www.w3.org/2000/svg" version="1.1" width="256"
     height="256" viewBox="0 0 256 256" xml:space="preserve">

<defs>
</defs>
    <g style="stroke: none; stroke-width: 0; stroke-dasharray: none; stroke-linecap: butt; stroke-linejoin: miter; stroke-miterlimit: 10; fill: none; fill-rule: nonzero; opacity: 1;"
       transform="translate(1.4065934065934016 1.4065934065934016) scale(2.81 2.81)">
	<rect x="5.3" y="36.49" rx="0" ry="0" width="6.43" height="17.03"
          style="stroke: none; stroke-width: 1; stroke-dasharray: none; stroke-linecap: butt; stroke-linejoin: miter; stroke-miterlimit: 10; fill: #10DFDC; fill-rule: nonzero; opacity: 1;"
          transform=" matrix(1 0 0 1 0 0) "/>
        <rect x="17.46" y="18.24" rx="0" ry="0" width="6.43" height="53.51"
              style="stroke: none; stroke-width: 1; stroke-dasharray: none; stroke-linecap: butt; stroke-linejoin: miter; stroke-miterlimit: 10; fill: #000; fill-rule: nonzero; opacity: 1;"
              transform=" matrix(1 0 0 1 0 0) "/>
        <rect x="29.62" y="0" rx="0" ry="0" width="6.43" height="90"
              style="stroke: none; stroke-width: 1; stroke-dasharray: none; stroke-linecap: butt; stroke-linejoin: miter; stroke-miterlimit: 10; fill: #10DFDC; fill-rule: nonzero; opacity: 1;"
              transform=" matrix(1 0 0 1 0 0) "/>
        <rect x="41.79" y="18.24" rx="0" ry="0" width="6.43" height="53.51"
              style="stroke: none; stroke-width: 1; stroke-dasharray: none; stroke-linecap: butt; stroke-linejoin: miter; stroke-miterlimit: 10; fill: #000; fill-rule: nonzero; opacity: 1;"
              transform=" matrix(1 0 0 1 0 0) "/>
        <rect x="53.95" y="36.49" rx="0" ry="0" width="6.43" height="17.03"
              style="stroke: none; stroke-width: 1; stroke-dasharray: none; stroke-linecap: butt; stroke-linejoin: miter; stroke-miterlimit: 10; fill: #000; fill-rule: nonzero; opacity: 1;"
              transform=" matrix(1 0 0 1 0 0) "/>
        <rect x="66.11" y="18.24" rx="0" ry="0" width="6.43" height="53.51"
              style="stroke: none; stroke-width: 1; stroke-dasharray: none; stroke-linecap: butt; stroke-linejoin: miter; stroke-miterlimit: 10; fill: #10DFDC; fill-rule: nonzero; opacity: 1;"
              transform=" matrix(1 0 0 1 0 0) "/>
        <rect x="78.27" y="36.49" rx="0" ry="0" width="6.43" height="17.03"
              style="stroke: none; stroke-width: 1; stroke-dasharray: none; stroke-linecap: butt; stroke-linejoin: miter; stroke-miterlimit: 10; fill: #000; fill-rule: nonzero; opacity: 1;"
              transform=" matrix(1 0 0 1 0 0) "/>
</g>
</svg>