<svg xmlns="http://www.w3.org/2000/svg" version="1.1" width="256"
     height="256" viewBox="0 0 256 256" xml:space="preserve">

<defs>
</defs>
    <g style="stroke: none; stroke-width: 0; stroke-dasharray: none; stroke-linecap: butt; stroke-linejoin: miter; stroke-miterlimit: 10; fill: none; fill-rule: nonzero; opacity: 1;"
       transform="translate(1.4065934065934016 1.4065934065934016) scale(2.81 2.81)">
	<path d="M 9.324 54.324 c -0.552 0 -1 -0.447 -1 -1 V 36.676 c 0 -0.552 0.448 -1 1 -1 s 1 0.448 1 1 v 16.648 C 10.324 53.877 9.876 54.324 9.324 54.324 z"
          style="stroke: none; stroke-width: 1; stroke-dasharray: none; stroke-linecap: butt; stroke-linejoin: miter; stroke-miterlimit: 10; fill: #10DFDC; fill-rule: nonzero; opacity: 1;"
          transform=" matrix(1 0 0 1 0 0) " stroke-linecap="round"/>
        <path d="M 21.216 72.162 c -0.552 0 -1 -0.447 -1 -1 V 18.838 c 0 -0.552 0.448 -1 1 -1 s 1 0.448 1 1 v 52.324 C 22.216 71.715 21.769 72.162 21.216 72.162 z"
              style="stroke: none; stroke-width: 1; stroke-dasharray: none; stroke-linecap: butt; stroke-linejoin: miter; stroke-miterlimit: 10; fill: #10DFDC; fill-rule: nonzero; opacity: 1;"
              transform=" matrix(1 0 0 1 0 0) " stroke-linecap="round"/>
        <path d="M 33.108 90 c -0.552 0 -1 -0.447 -1 -1 V 1 c 0 -0.552 0.448 -1 1 -1 s 1 0.448 1 1 v 88 C 34.108 89.553 33.66 90 33.108 90 z"
              style="stroke: none; stroke-width: 1; stroke-dasharray: none; stroke-linecap: butt; stroke-linejoin: miter; stroke-miterlimit: 10; fill: #10DFDC; fill-rule: nonzero; opacity: 1;"
              transform=" matrix(1 0 0 1 0 0) " stroke-linecap="round"/>
        <path d="M 45 72.162 c -0.552 0 -1 -0.447 -1 -1 V 18.838 c 0 -0.552 0.448 -1 1 -1 s 1 0.448 1 1 v 52.324 C 46 71.715 45.552 72.162 45 72.162 z"
              style="stroke: none; stroke-width: 1; stroke-dasharray: none; stroke-linecap: butt; stroke-linejoin: miter; stroke-miterlimit: 10; fill: #10DFDC; fill-rule: nonzero; opacity: 1;"
              transform=" matrix(1 0 0 1 0 0) " stroke-linecap="round"/>
        <path d="M 56.892 54.324 c -0.553 0 -1 -0.447 -1 -1 V 36.676 c 0 -0.552 0.447 -1 1 -1 s 1 0.448 1 1 v 16.648 C 57.892 53.877 57.444 54.324 56.892 54.324 z"
              style="stroke: none; stroke-width: 1; stroke-dasharray: none; stroke-linecap: butt; stroke-linejoin: miter; stroke-miterlimit: 10; fill: #10DFDC; fill-rule: nonzero; opacity: 1;"
              transform=" matrix(1 0 0 1 0 0) " stroke-linecap="round"/>
        <path d="M 68.784 72.162 c -0.553 0 -1 -0.447 -1 -1 V 18.838 c 0 -0.552 0.447 -1 1 -1 s 1 0.448 1 1 v 52.324 C 69.784 71.715 69.337 72.162 68.784 72.162 z"
              style="stroke: none; stroke-width: 1; stroke-dasharray: none; stroke-linecap: butt; stroke-linejoin: miter; stroke-miterlimit: 10; fill: #10DFDC; fill-rule: nonzero; opacity: 1;"
              transform=" matrix(1 0 0 1 0 0) " stroke-linecap="round"/>
        <path d="M 80.676 54.324 c -0.553 0 -1 -0.447 -1 -1 V 36.676 c 0 -0.552 0.447 -1 1 -1 s 1 0.448 1 1 v 16.648 C 81.676 53.877 81.229 54.324 80.676 54.324 z"
              style="stroke: none; stroke-width: 1; stroke-dasharray: none; stroke-linecap: butt; stroke-linejoin: miter; stroke-miterlimit: 10; fill: #10DFDC; fill-rule: nonzero; opacity: 1;"
              transform=" matrix(1 0 0 1 0 0) " stroke-linecap="round"/>
</g>
</svg>