<svg xmlns="http://www.w3.org/2000/svg" version="1.1" width="256"
	 height="256" viewBox="0 0 256 256" xml:space="preserve">

<defs>
</defs>
    <g style="stroke: none; stroke-width: 0; stroke-dasharray: none; stroke-linecap: butt; stroke-linejoin: miter; stroke-miterlimit: 10; fill: none; fill-rule: nonzero; opacity: 1;"
       transform="translate(1.4065934065934016 1.4065934065934016) scale(2.81 2.81)">
	<path d="M 10.135 55.135 c -1.104 0 -2 -0.896 -2 -2 v -16.27 c 0 -1.104 0.896 -2 2 -2 s 2 0.896 2 2 v 16.27 C 12.135 54.239 11.24 55.135 10.135 55.135 z"
          style="stroke: none; stroke-width: 1; stroke-dasharray: none; stroke-linecap: butt; stroke-linejoin: miter; stroke-miterlimit: 10; fill: #000; fill-rule: nonzero; opacity: 1;"
          transform=" matrix(1 0 0 1 0 0) " stroke-linecap="round"/>
        <path d="M 21.757 72.567 c -1.104 0 -2 -0.896 -2 -2 V 19.433 c 0 -1.104 0.896 -2 2 -2 s 2 0.896 2 2 v 51.135 C 23.757 71.672 22.861 72.567 21.757 72.567 z"
              style="stroke: none; stroke-width: 1; stroke-dasharray: none; stroke-linecap: butt; stroke-linejoin: miter; stroke-miterlimit: 10; fill: #10DFDC; fill-rule: nonzero; opacity: 1;"
              transform=" matrix(1 0 0 1 0 0) " stroke-linecap="round"/>
        <path d="M 33.378 90 c -1.104 0 -2 -0.896 -2 -2 V 2 c 0 -1.104 0.896 -2 2 -2 s 2 0.896 2 2 v 86 C 35.378 89.104 34.483 90 33.378 90 z"
              style="stroke: none; stroke-width: 1; stroke-dasharray: none; stroke-linecap: butt; stroke-linejoin: miter; stroke-miterlimit: 10; fill: #000; fill-rule: nonzero; opacity: 1;"
              transform=" matrix(1 0 0 1 0 0) " stroke-linecap="round"/>
        <path d="M 45 72.567 c -1.104 0 -2 -0.896 -2 -2 V 19.433 c 0 -1.104 0.896 -2 2 -2 s 2 0.896 2 2 v 51.135 C 47 71.672 46.104 72.567 45 72.567 z"
              style="stroke: none; stroke-width: 1; stroke-dasharray: none; stroke-linecap: butt; stroke-linejoin: miter; stroke-miterlimit: 10; fill: #10DFDC; fill-rule: nonzero; opacity: 1;"
              transform=" matrix(1 0 0 1 0 0) " stroke-linecap="round"/>
        <path d="M 56.622 55.135 c -1.104 0 -2 -0.896 -2 -2 v -16.27 c 0 -1.104 0.896 -2 2 -2 s 2 0.896 2 2 v 16.27 C 58.622 54.239 57.727 55.135 56.622 55.135 z"
              style="stroke: none; stroke-width: 1; stroke-dasharray: none; stroke-linecap: butt; stroke-linejoin: miter; stroke-miterlimit: 10; fill: #000; fill-rule: nonzero; opacity: 1;"
              transform=" matrix(1 0 0 1 0 0) " stroke-linecap="round"/>
        <path d="M 68.243 72.567 c -1.104 0 -2 -0.896 -2 -2 V 19.433 c 0 -1.104 0.896 -2 2 -2 s 2 0.896 2 2 v 51.135 C 70.243 71.672 69.348 72.567 68.243 72.567 z"
              style="stroke: none; stroke-width: 1; stroke-dasharray: none; stroke-linecap: butt; stroke-linejoin: miter; stroke-miterlimit: 10; fill: #10DFDC; fill-rule: nonzero; opacity: 1;"
              transform=" matrix(1 0 0 1 0 0) " stroke-linecap="round"/>
        <path d="M 79.865 55.135 c -1.104 0 -2 -0.896 -2 -2 v -16.27 c 0 -1.104 0.896 -2 2 -2 s 2 0.896 2 2 v 16.27 C 81.865 54.239 80.97 55.135 79.865 55.135 z"
              style="stroke: none; stroke-width: 1; stroke-dasharray: none; stroke-linecap: butt; stroke-linejoin: miter; stroke-miterlimit: 10; fill: #000; fill-rule: nonzero; opacity: 1;"
              transform=" matrix(1 0 0 1 0 0) " stroke-linecap="round"/>
</g>
</svg>