<svg width="34" height="34" viewBox="0 0 34 34" fill="none" xmlns="http://www.w3.org/2000/svg">
<path fill-rule="evenodd" clip-rule="evenodd" d="M3.66668 0.333336H30.3333C32.1743 0.333336 33.6667 1.82572 33.6667 3.66667V30.3333C33.6667 32.1743 32.1743 33.6667 30.3333 33.6667H3.66668C1.82573 33.6667 0.333344 32.1743 0.333344 30.3333V3.66667C0.333344 1.82572 1.82573 0.333336 3.66668 0.333336ZM3.66668 3.66667V30.3333H30.3333V3.66667H3.66668ZM15.5551 17.0073H18.6667V27H22V17.0073H25.304V13.674H22V12C22 11.0795 22.7462 10.3333 23.6667 10.3333H25.3333V7H23.6667C20.9053 7 18.6667 9.23858 18.6667 12V13.674H15.5551V17.0073Z" fill="#2976CB"/>
</svg>
