<svg width="40" height="40" viewBox="0 0 40 40" fill="none" xmlns="http://www.w3.org/2000/svg">
<path fill-rule="evenodd" clip-rule="evenodd" d="M28 0H12C5.37258 0 0 5.37258 0 12V28C0 34.6274 5.37258 40 12 40H28C34.6274 40 40 34.6274 40 28V12C40 5.37258 34.6274 0 28 0ZM4 12C4 7.58172 7.58172 4 12 4H28C32.4183 4 36 7.58172 36 12V28C36 32.4183 32.4183 36 28 36H12C7.58172 36 4 32.4183 4 28V12ZM20 30C14.4772 30 10 25.5228 10 20C10 14.4772 14.4772 10 20 10C25.5228 10 30 14.4772 30 20C30 25.5228 25.5228 30 20 30ZM20 26C23.3137 26 26 23.3137 26 20C26 16.6863 23.3137 14 20 14C16.6863 14 14 16.6863 14 20C14 23.3137 16.6863 26 20 26ZM32 10C32 11.1046 31.1046 12 30 12C28.8954 12 28 11.1046 28 10C28 8.89543 28.8954 8 30 8C31.1046 8 32 8.89543 32 10Z" fill="url(#paint0_linear_101_118)"/>
<defs>
<linearGradient id="paint0_linear_101_118" x1="20" y1="0" x2="20" y2="40" gradientUnits="userSpaceOnUse">
<stop stop-color="#FA0C1B"/>
<stop offset="1" stop-color="#C71AA1"/>
</linearGradient>
</defs>
</svg>
