    <svg  viewBox="0 20 380 326" fill="none" xmlns="http://www.w3.org/2000/svg" xlink="http://www.w3.org/1999/xlink">
     <rect width="428" height="926" fill="url(#paint0_linear_1_2)" />
     <circle opacity="0.2" cx="302.5" cy="271.5" r="59.5" fill="#0D6FCA" />
     <circle opacity="0.2" cx="368.5" cy="348.5" r="59.5" fill="#0D6FCA" />
     <circle opacity="0.2" cx="48.5" cy="866.5" r="59.5" fill="#0D6FCA" />
     <circle opacity="0.2" cx="131.5" cy="121.5" r="59.5" fill="#0D6FCA" />
     <circle opacity="0.2" cx="59.5" cy="41.5" r="59.5" fill="#0D6FCA" />
     <circle opacity="0.2" cx="132.5" cy="822.5" r="59.5" fill="#0D6FCA" />

     <path d="M99.6289 279.168H114.57C120.41 279.168 124.736 280.037 127.549 281.775C130.361 283.514 131.768 286.199 131.768 289.832C131.768 292.234 131.152 294.285 129.922 295.984C128.691 297.684 127.07 298.777 125.059 299.266V299.559C127.676 300.262 129.59 301.424 130.801 303.045C132.012 304.666 132.617 306.805 132.617 309.461C132.617 313.328 131.162 316.385 128.252 318.631C125.342 320.877 121.357 322 116.299 322H99.6289V279.168ZM111.201 287.928V295.604H114.688C116.367 295.604 117.656 295.262 118.555 294.578C119.453 293.875 119.902 292.859 119.902 291.531C119.902 289.129 118.086 287.928 114.453 287.928H111.201ZM111.201 304.07V313.064H115.273C118.887 313.064 120.693 311.541 120.693 308.494C120.693 307.068 120.205 305.975 119.229 305.213C118.271 304.451 116.875 304.07 115.039 304.07H111.201ZM154.883 288.221C157.988 288.221 160.781 288.914 163.262 290.301C165.742 291.688 167.666 293.67 169.033 296.248C170.4 298.826 171.084 301.756 171.084 305.037C171.084 305.135 171.084 305.232 171.084 305.33C171.084 310.76 169.619 314.998 166.689 318.045C163.76 321.072 159.727 322.586 154.59 322.586C149.453 322.586 145.391 321.033 142.402 317.928C139.434 314.803 137.949 310.574 137.949 305.242C137.949 299.891 139.404 295.73 142.314 292.762C145.225 289.734 149.326 288.221 154.619 288.221C154.697 288.221 154.785 288.221 154.883 288.221ZM159.424 305.359C159.424 302.43 159.043 300.262 158.281 298.855C157.52 297.449 156.27 296.746 154.531 296.746C152.793 296.746 151.533 297.449 150.752 298.855C149.971 300.262 149.58 302.43 149.58 305.359C149.58 308.27 149.971 310.457 150.752 311.922C151.533 313.367 152.793 314.09 154.531 314.09C156.27 314.09 157.52 313.367 158.281 311.922C159.043 310.477 159.424 308.289 159.424 305.359ZM193.145 288.221C196.25 288.221 199.043 288.914 201.523 290.301C204.004 291.688 205.928 293.67 207.295 296.248C208.662 298.826 209.346 301.756 209.346 305.037C209.346 305.135 209.346 305.232 209.346 305.33C209.346 310.76 207.881 314.998 204.951 318.045C202.021 321.072 197.988 322.586 192.852 322.586C187.715 322.586 183.652 321.033 180.664 317.928C177.695 314.803 176.211 310.574 176.211 305.242C176.211 299.891 177.666 295.73 180.576 292.762C183.486 289.734 187.588 288.221 192.881 288.221C192.959 288.221 193.047 288.221 193.145 288.221ZM197.686 305.359C197.686 302.43 197.305 300.262 196.543 298.855C195.781 297.449 194.531 296.746 192.793 296.746C191.055 296.746 189.795 297.449 189.014 298.855C188.232 300.262 187.842 302.43 187.842 305.359C187.842 308.27 188.232 310.457 189.014 311.922C189.795 313.367 191.055 314.09 192.793 314.09C194.531 314.09 195.781 313.367 196.543 311.922C197.305 310.477 197.686 308.289 197.686 305.359ZM227.422 276.414V294.344C227.422 297.469 227.207 300.467 226.777 303.338H227.012C228.34 301.209 229.521 299.49 230.557 298.182L237.998 288.807H250.771L239.258 302.928L251.504 322H238.408L231.143 310.105L227.422 312.947V322H215.908V276.414H227.422Z" fill="#0F2B73" />


     <path d="M253.008 341H243.703V306.734H253.008V341ZM270.422 314.445H276.938V321.312H270.422V331.648C270.422 333.367 271.25 334.227 272.906 334.227C274.156 334.227 275.633 333.922 277.336 333.312V339.992C276.086 340.539 274.906 340.914 273.797 341.117C272.688 341.352 271.383 341.469 269.883 341.469C266.836 341.469 264.625 340.727 263.25 339.242C261.875 337.742 261.188 335.414 261.188 332.258V321.312H257.977V317.609L262.055 314.703L264.422 309.125H270.422V314.445Z" fill="white" />
    </svg>